<?xml version="1.0" encoding="UTF-8"?>
<svg xmlns="http://www.w3.org/2000/svg" xmlns:xlink="http://www.w3.org/1999/xlink" version="1.1" width="3079px" height="2836px" style="shape-rendering:geometricPrecision; text-rendering:geometricPrecision; image-rendering:optimizeQuality; fill-rule:evenodd; clip-rule:evenodd">
  <g>
    <path style="opacity:0.996" fill="#000000" d="M 1330.5,-0.5 C 1335.17,-0.5 1339.83,-0.5 1344.5,-0.5C 1351.63,4.0646 1355.46,10.7313 1356,19.5C 1354.97,52.411 1363.3,82.7443 1381,110.5C 1389.84,124.844 1399.17,138.844 1409,152.5C 1440.77,192.263 1471.77,232.597 1502,273.5C 1529.26,312.334 1551.59,354.001 1569,398.5C 1599.1,485.372 1601.43,573.039 1576,661.5C 1555.94,727.289 1525.61,787.622 1485,842.5C 1442.95,898.22 1394.45,947.72 1339.5,991C 1413.23,1083.41 1480.73,1180.25 1542,1281.5C 1568.17,1325.17 1593.84,1369.17 1619,1413.5C 1606.14,1357.82 1599.31,1301.32 1598.5,1244C 1598.5,1143.15 1624,1049.32 1675,962.5C 1743.25,845.237 1833.42,748.07 1945.5,671C 1965.94,657.448 1987.94,647.115 2011.5,640C 2020.98,637.676 2030.31,638.009 2039.5,641C 2046.04,646.593 2048.54,653.759 2047,662.5C 2044.88,671.877 2042.54,681.21 2040,690.5C 2036.09,715.093 2037.42,739.427 2044,763.5C 2048.86,782.076 2054.53,800.409 2061,818.5C 2081.04,868.293 2099.71,918.627 2117,969.5C 2170.84,1133.94 2143.84,1283.27 2036,1417.5C 1977.8,1485.39 1909.3,1540.22 1830.5,1582C 1798.01,1598.75 1765.01,1614.08 1731.5,1628C 1786.01,1748.22 1847.85,1864.05 1917,1975.5C 1975.85,2068.5 2041.51,2156.5 2114,2239.5C 2095.44,2181.34 2087.77,2121.68 2091,2060.5C 2099.23,1928.54 2137.56,1806.21 2206,1693.5C 2273.5,1590.33 2357.67,1503.17 2458.5,1432C 2484.11,1414.69 2511.11,1399.69 2539.5,1387C 2553.11,1381.22 2567.28,1377.72 2582,1376.5C 2596.02,1375.87 2603.85,1382.37 2605.5,1396C 2600.73,1412.65 2596.56,1429.49 2593,1446.5C 2591.14,1466.29 2592.14,1485.96 2596,1505.5C 2599.38,1521.98 2603.38,1538.32 2608,1554.5C 2624.94,1606.32 2641.27,1658.32 2657,1710.5C 2706.89,1883.87 2672.23,2037.54 2553,2171.5C 2485.2,2242.83 2406.04,2298 2315.5,2337C 2289.94,2348.11 2263.94,2358.11 2237.5,2367C 2357.39,2478.99 2492.05,2569.66 2641.5,2639C 2748.43,2687.64 2860.1,2720.31 2976.5,2737C 3009.67,2741.67 3043.01,2743.83 3076.5,2743.5C 3076.59,2758.02 3077.26,2772.35 3078.5,2786.5C 3078.5,2791.83 3078.5,2797.17 3078.5,2802.5C 3019.58,2802.61 2961.25,2796.78 2903.5,2785C 2772.1,2758.43 2647.44,2713.43 2529.5,2650C 2469.64,2617.92 2412.31,2582.09 2357.5,2542.5C 2298.68,2624.49 2227.35,2693.32 2143.5,2749C 2067.59,2798.29 1984.59,2827.12 1894.5,2835.5C 1873.83,2835.5 1853.17,2835.5 1832.5,2835.5C 1765.54,2829.24 1702.54,2809.74 1643.5,2777C 1612.42,2759.24 1582.42,2739.91 1553.5,2719C 1523.78,2696.28 1493.78,2673.95 1463.5,2652C 1441.12,2635.98 1417.45,2621.98 1392.5,2610C 1368.23,2599.63 1342.9,2595.29 1316.5,2597C 1303.97,2596.3 1297.3,2589.8 1296.5,2577.5C 1296.73,2572.3 1297.9,2567.3 1300,2562.5C 1306.85,2549.45 1315.19,2537.45 1325,2526.5C 1363.14,2487.67 1405.3,2454.17 1451.5,2426C 1537.57,2372.74 1629.9,2334.08 1728.5,2310C 1839.83,2283.91 1949.16,2290.58 2056.5,2330C 2092.46,2343.49 2127.46,2358.82 2161.5,2376C 2043.36,2258.43 1941.03,2128.93 1854.5,1987.5C 1781.25,2059.16 1696.91,2114.32 1601.5,2153C 1520.5,2184.75 1436.83,2195.42 1350.5,2185C 1289.15,2176.31 1232.49,2155.31 1180.5,2122C 1151.41,2102.58 1123.74,2081.25 1097.5,2058C 1058.47,2020.64 1020.47,1982.3 983.5,1943C 963.956,1923.78 942.956,1906.45 920.5,1891C 899.396,1877.74 876.396,1870.08 851.5,1868C 838.165,1865.02 832.331,1856.85 834,1843.5C 840.109,1829.71 848.942,1817.88 860.5,1808C 892.165,1782.38 926.498,1760.71 963.5,1743C 1081.11,1686.06 1205.28,1655.89 1336,1652.5C 1412.88,1652.14 1486.38,1667.64 1556.5,1699C 1636.8,1735.68 1708.64,1784.51 1772,1845.5C 1723.28,1746.06 1673.95,1646.73 1624,1547.5C 1583.37,1469.54 1540.2,1393.21 1494.5,1318.5C 1425.33,1379.29 1347.33,1426.12 1260.5,1459C 1176.11,1490.64 1089.44,1499.31 1000.5,1485C 938.446,1473.46 882.112,1449.13 831.5,1412C 802.692,1390.63 775.859,1366.8 751,1340.5C 719.587,1305.76 688.92,1270.42 659,1234.5C 639.733,1212.9 618.9,1193.06 596.5,1175C 576.353,1160.77 554.02,1151.77 529.5,1148C 518.695,1144.22 514.195,1136.72 516,1125.5C 517.393,1121.71 519.059,1118.05 521,1114.5C 529.909,1103.59 540.076,1094.09 551.5,1086C 588.773,1061.53 628.44,1041.53 670.5,1026C 767.104,990.079 866.937,971.246 970,969.5C 1064.18,968.753 1152.35,991.253 1234.5,1037C 1288.07,1067.05 1336.9,1103.55 1381,1146.5C 1307.52,1037.61 1222.69,937.443 1126.5,846C 1077.22,799.792 1023.72,759.292 966,724.5C 891.439,788.553 806.939,835.719 712.5,866C 636.668,889.284 559.668,894.284 481.5,881C 421.473,869.31 366.806,845.643 317.5,810C 301.133,797.479 285.133,784.479 269.5,771C 255,756.5 240.5,742 226,727.5C 196.333,693.167 166.667,658.833 137,624.5C 124.5,610.667 111.333,597.5 97.5,585C 82.7487,572.265 66.4154,561.932 48.5,554C 36.6161,550.242 24.6161,546.908 12.5,544C 7.0846,541.743 2.75127,538.243 -0.5,533.5C -0.5,529.167 -0.5,524.833 -0.5,520.5C 6.04518,508.105 15.0452,497.605 26.5,489C 48.8452,472.15 72.8452,457.817 98.5,446C 230.709,385.492 369.375,359.825 514.5,369C 596.217,377.682 671.883,403.682 741.5,447C 808.16,488.958 867.66,539.791 920,599.5C 936.212,618.71 952.045,638.21 967.5,658C 1033.27,693.45 1093.77,736.283 1149,786.5C 1125.49,738.657 1107.49,688.657 1095,636.5C 1077.35,554.554 1078.69,472.887 1099,391.5C 1126.29,280.273 1172.96,178.273 1239,85.5C 1257.66,59.4989 1279.16,35.9989 1303.5,15C 1311.68,8.30585 1320.68,3.13918 1330.5,-0.5 Z"></path>
  </g>
</svg>
