<?xml version="1.0" encoding="UTF-8"?>
<svg xmlns="http://www.w3.org/2000/svg" xmlns:xlink="http://www.w3.org/1999/xlink" version="1.1" width="2550px" height="3086px" style="shape-rendering:geometricPrecision; text-rendering:geometricPrecision; image-rendering:optimizeQuality; fill-rule:evenodd; clip-rule:evenodd">
  <g>
    <path style="opacity:0.995" fill="#000000" d="M 271.5,-0.5 C 286.833,-0.5 302.167,-0.5 317.5,-0.5C 391.024,6.88204 445.524,42.882 481,107.5C 501.203,145.438 515.869,185.438 525,227.5C 541.377,296.563 549.044,366.563 548,437.5C 546.233,493.174 540.899,548.507 532,603.5C 512.373,721.837 486.206,838.671 453.5,954C 505.087,1114.32 566.253,1270.82 637,1423.5C 623.192,1355.5 613.858,1286.84 609,1217.5C 604.363,1149.82 607.363,1082.49 618,1015.5C 628.916,944.497 659.749,883.997 710.5,834C 751.894,797.046 798.227,789.379 849.5,811C 870.528,820.837 889.861,833.171 907.5,848C 947.555,881.373 981.055,920.206 1008,964.5C 1043.55,1028.93 1052.55,1096.93 1035,1168.5C 1023.87,1217.94 1003.87,1263.28 975,1304.5C 940.368,1347.19 899.868,1383.02 853.5,1412C 796.614,1447.36 736.281,1475.53 672.5,1496.5C 775.833,1707.67 902.333,1903.01 1052,2082.5C 1073.59,2108.1 1095.93,2133.1 1119,2157.5C 1102.88,2126.59 1087.21,2095.26 1072,2063.5C 1035.23,1985.08 1009.89,1903.08 996,1817.5C 991.367,1784.29 990.034,1750.95 992,1717.5C 996.912,1662.74 1015.58,1613.4 1048,1569.5C 1085.27,1527.75 1131.1,1514.25 1185.5,1529C 1242.68,1545.91 1294.01,1573.25 1339.5,1611C 1390.6,1655.02 1419.1,1710.85 1425,1778.5C 1432.15,1850.93 1419.49,1919.6 1387,1984.5C 1361.15,2032.69 1329.48,2076.69 1292,2116.5C 1266.34,2143.83 1239.17,2169.33 1210.5,2193C 1200.01,2201.41 1189.35,2209.58 1178.5,2217.5C 1177.48,2218 1177.31,2218.67 1178,2219.5C 1366.81,2411.39 1584.97,2561.06 1832.5,2668.5C 1833.29,2667.64 1832.96,2666.81 1831.5,2666C 1767.03,2618.54 1708.53,2564.37 1656,2503.5C 1620.02,2460.91 1590.02,2414.24 1566,2363.5C 1538.74,2304.49 1531.74,2243.16 1545,2179.5C 1559.48,2119.02 1597.31,2083.19 1658.5,2072C 1713.89,2064.52 1768.55,2068.19 1822.5,2083C 1882.97,2100.46 1927.8,2136.96 1957,2192.5C 1982.56,2241.52 1998.23,2293.52 2004,2348.5C 2006.59,2405.17 2000.26,2460.84 1985,2515.5C 1967.29,2580.14 1942.46,2641.81 1910.5,2700.5C 2116.79,2776.83 2329.79,2821.83 2549.5,2835.5C 2549.5,2840.83 2549.5,2846.17 2549.5,2851.5C 2548.69,2853.63 2548.19,2855.96 2548,2858.5C 2346.04,2845.11 2149.21,2805.94 1957.5,2741C 1938.97,2734.66 1920.64,2727.82 1902.5,2720.5C 1890.18,2776.97 1872.34,2831.64 1849,2884.5C 1826.99,2934.04 1796.49,2977.54 1757.5,3015C 1722.78,3045.86 1682.45,3065.86 1636.5,3075C 1615.21,3079.68 1593.88,3083.18 1572.5,3085.5C 1552.5,3085.5 1532.5,3085.5 1512.5,3085.5C 1435.09,3078.75 1364.75,3052.92 1301.5,3008C 1229.35,2955.52 1173.52,2889.36 1134,2809.5C 1125.04,2790 1118.71,2769.67 1115,2748.5C 1107.29,2693.75 1128.79,2655.58 1179.5,2634C 1204.3,2624.05 1229.96,2617.38 1256.5,2614C 1293.39,2608.44 1330.39,2607.44 1367.5,2611C 1426.94,2617.07 1485.94,2626.07 1544.5,2638C 1640.65,2657.63 1736.98,2675.96 1833.5,2693C 1638.75,2610.37 1461.42,2501.04 1301.5,2365C 1252.86,2323.7 1206.03,2280.2 1161,2234.5C 1132.01,2273.53 1099.84,2310.03 1064.5,2344C 1027.7,2379.08 986.367,2407.74 940.5,2430C 890.634,2452.98 838.634,2459.98 784.5,2451C 660.33,2430.72 565.163,2367.55 499,2261.5C 451.283,2179.97 427.617,2091.97 428,1997.5C 429.185,1967.6 438.852,1940.93 457,1917.5C 476.596,1897.62 500.429,1886.79 528.5,1885C 591.179,1883.47 650.846,1896.14 707.5,1923C 748.126,1942.97 787.459,1964.97 825.5,1989C 919.698,2050.93 1013.03,2114.1 1105.5,2178.5C 1106.52,2178 1106.69,2177.33 1106,2176.5C 996.455,2057.65 898.788,1929.99 813,1793.5C 755.114,1700.42 701.281,1604.76 651.5,1506.5C 599.764,1543.38 544.097,1573.54 484.5,1597C 439.172,1614.77 392.172,1624.27 343.5,1625.5C 294.2,1625.12 248.2,1612.62 205.5,1588C 98.5289,1529.63 32.6955,1440.46 8,1320.5C 4.16561,1299.15 1.33228,1277.82 -0.5,1256.5C -0.5,1234.17 -0.5,1211.83 -0.5,1189.5C 1.36493,1153.67 8.19827,1118.67 20,1084.5C 44.6429,1020.25 90.8095,995.421 158.5,1010C 213.431,1024.46 262.765,1049.46 306.5,1085C 340.205,1113.37 372.039,1143.87 402,1176.5C 477.776,1260.92 549.776,1348.25 618,1438.5C 566.769,1326.02 519.769,1210.69 477,1092.5C 460.733,1046.03 445.067,999.367 430,952.5C 325.628,835.313 241.962,704.313 179,559.5C 152.261,496.544 133.927,431.211 124,363.5C 116.416,305.23 115.749,246.896 122,188.5C 126.466,146.107 139.132,106.441 160,69.5C 185.921,28.2879 223.087,4.95455 271.5,-0.5 Z"></path>
  </g>
</svg>
