<?xml version="1.0" encoding="UTF-8"?>
<svg xmlns="http://www.w3.org/2000/svg" xmlns:xlink="http://www.w3.org/1999/xlink" version="1.1" width="2650px" height="3085px" style="shape-rendering:geometricPrecision; text-rendering:geometricPrecision; image-rendering:optimizeQuality; fill-rule:evenodd; clip-rule:evenodd">
  <g>
    <path style="opacity:0.992" fill="#000000" d="M 843.5,-0.5 C 852.5,-0.5 861.5,-0.5 870.5,-0.5C 900.932,5.75141 924.432,22.0847 941,48.5C 954.568,71.3108 964.568,95.6442 971,121.5C 978.512,151.753 983.512,182.42 986,213.5C 989.175,287.488 992.175,361.488 995,435.5C 998.134,505.97 1009.8,574.97 1030,642.5C 1040.12,673.412 1052.46,703.412 1067,732.5C 1170.45,799.563 1264.12,878.896 1348,970.5C 1345.57,954.908 1343.24,939.241 1341,923.5C 1338.87,839.373 1344.2,755.707 1357,672.5C 1358.79,661.22 1360.96,650.053 1363.5,639C 1309.7,619.492 1284.2,580.992 1287,523.5C 1294.16,478.006 1319.66,448.173 1363.5,434C 1413.91,422.976 1453.74,438.476 1483,480.5C 1506.3,524.414 1502.97,566.081 1473,605.5C 1449.85,630.815 1421.02,643.149 1386.5,642.5C 1383.51,704.848 1384.01,767.182 1388,829.5C 1392.24,862.413 1395.57,895.413 1398,928.5C 1399.35,962.175 1399.69,995.842 1399,1029.5C 1408.09,1041.35 1417.43,1053.02 1427,1064.5C 1430.18,1023.61 1438.84,983.943 1453,945.5C 1483.7,868.777 1520.2,795.11 1562.5,724.5C 1529.84,697.476 1516.34,662.81 1522,620.5C 1532.5,574 1561,545.5 1607.5,535C 1651.06,528.878 1686.22,543.044 1713,577.5C 1737.02,615.175 1738.68,653.841 1718,693.5C 1690.77,734.688 1652.6,751.188 1603.5,743C 1596.6,741.533 1589.93,739.367 1583.5,736.5C 1560.16,789.36 1539.66,843.36 1522,898.5C 1512.29,936.675 1501.96,974.675 1491,1012.5C 1480.33,1043.5 1468.83,1074.16 1456.5,1104.5C 1512.34,1188.16 1565.18,1273.82 1615,1361.5C 1669.21,1457.92 1720.88,1555.92 1770,1655.5C 1764.77,1540.21 1783.1,1428.88 1825,1321.5C 1853.2,1252 1894.04,1191.17 1947.5,1139C 1980.42,1109.85 2017.09,1086.18 2057.5,1068C 2102,1046.54 2148.67,1031.87 2197.5,1024C 2223.3,1020.16 2248.97,1020.83 2274.5,1026C 2316.37,1037.21 2341.87,1064.04 2351,1106.5C 2354.33,1129.86 2351.66,1152.52 2343,1174.5C 2331.89,1201.42 2317.22,1226.08 2299,1248.5C 2265.82,1287.68 2229.32,1323.52 2189.5,1356C 2132.26,1400.57 2075.59,1445.91 2019.5,1492C 1962.04,1540.12 1910.87,1593.96 1866,1653.5C 1845.95,1681.75 1827.79,1711.25 1811.5,1742C 1898.63,1925.71 1975.79,2113.54 2043,2305.5C 2043.35,2195.72 2065.69,2090.72 2110,1990.5C 2139.62,1926.06 2180.79,1870.23 2233.5,1823C 2261.98,1799.91 2292.98,1780.58 2326.5,1765C 2374.73,1741.48 2425.39,1725.81 2478.5,1718C 2503.42,1715.03 2528.09,1716.36 2552.5,1722C 2599.61,1737.49 2624.28,1770.16 2626.5,1820C 2625.14,1848.09 2617.3,1874.25 2603,1898.5C 2586.02,1926.49 2566.36,1952.49 2544,1976.5C 2517.67,2003.84 2489.83,2029.34 2460.5,2053C 2393.38,2104.44 2327.72,2157.77 2263.5,2213C 2249.33,2226.5 2235.17,2240 2221,2253.5C 2167.96,2306.18 2123.8,2365.35 2088.5,2431C 2133.84,2550.86 2192.34,2663.36 2264,2768.5C 2313.34,2839.85 2371.84,2903.01 2439.5,2958C 2477.38,2987.46 2518.38,3012.12 2562.5,3032C 2588.18,3043.23 2614.85,3051.23 2642.5,3056C 2645.27,3057.37 2647.6,3059.2 2649.5,3061.5C 2649.5,3066.83 2649.5,3072.17 2649.5,3077.5C 2647.5,3080.17 2645.17,3082.5 2642.5,3084.5C 2638.17,3084.5 2633.83,3084.5 2629.5,3084.5C 2580.01,3076.95 2533.01,3061.45 2488.5,3038C 2414.47,2998.52 2348.64,2948.02 2291,2886.5C 2226.45,2816.96 2170.78,2740.96 2124,2658.5C 2084.53,2589.56 2049.86,2518.22 2020,2444.5C 1998.15,2388.28 1976.32,2332.12 1954.5,2276C 1925.58,2259.04 1895.24,2245.04 1863.5,2234C 1818.86,2218.9 1773.52,2206.23 1727.5,2196C 1673.53,2187.19 1619.2,2183.03 1564.5,2183.5C 1538.15,2183.67 1511.82,2184.34 1485.5,2185.5C 1485.6,2241.82 1458.93,2278.66 1405.5,2296C 1356.08,2305.54 1317.25,2289.71 1289,2248.5C 1268.08,2210.66 1268.41,2173 1290,2135.5C 1321.76,2092.25 1363.59,2078.08 1415.5,2093C 1449.45,2106.45 1471.78,2130.61 1482.5,2165.5C 1591.13,2144.08 1700.13,2141.92 1809.5,2159C 1853.26,2168.35 1892.93,2186.35 1928.5,2213C 1929.33,2213.69 1930,2213.52 1930.5,2212.5C 1885.36,2099.09 1837.7,1986.76 1787.5,1875.5C 1729.21,1862.46 1670.21,1857.3 1610.5,1860C 1555.34,1862.56 1500.67,1869.23 1446.5,1880C 1379.61,1893.65 1312.94,1908.31 1246.5,1924C 1189.24,1937.33 1131.24,1943.33 1072.5,1942C 1044.6,1941.15 1017.6,1935.82 991.5,1926C 941.654,1904.47 918.82,1866.64 923,1812.5C 927.616,1791.6 936.283,1772.6 949,1755.5C 971.009,1728.82 996.176,1705.65 1024.5,1686C 1072.93,1652.95 1125.26,1627.62 1181.5,1610C 1249.51,1593.52 1317.84,1592.18 1386.5,1606C 1476.83,1625.01 1560.5,1659.68 1637.5,1710C 1677.89,1736.05 1715.56,1765.72 1750.5,1799C 1751.33,1799.69 1752,1799.52 1752.5,1798.5C 1681.98,1646.46 1606.48,1497.13 1526,1350.5C 1505.17,1313.51 1483.84,1276.84 1462,1240.5C 1409.45,1236.95 1357.29,1240.45 1305.5,1251C 1245.3,1263.62 1186.63,1281.29 1129.5,1304C 1079.27,1324.11 1029.27,1344.78 979.5,1366C 933.651,1385.62 886.317,1400.62 837.5,1411C 808.065,1417.04 778.399,1418.7 748.5,1416C 705.834,1411.95 675.334,1390.78 657,1352.5C 648.199,1325.74 649.532,1299.41 661,1273.5C 673.477,1247.37 689.477,1223.71 709,1202.5C 749.668,1159.61 795.834,1124.11 847.5,1096C 907.142,1068 969.975,1054.17 1036,1054.5C 1126.63,1056.53 1213.47,1075.7 1296.5,1112C 1342.1,1131.87 1385.26,1155.7 1426,1183.5C 1404.79,1148.57 1381.45,1114.91 1356,1082.5C 1233.98,927.765 1086.15,804.598 912.5,713C 858.721,685.111 802.721,662.778 744.5,646C 650.482,621.284 555.816,618.284 460.5,637C 383.958,652.839 319.125,689.005 266,745.5C 183.245,843.063 160.745,953.23 198.5,1076C 218.599,1134.26 254.265,1180.26 305.5,1214C 358.813,1245.61 415.813,1255.27 476.5,1243C 519.98,1229.18 552.147,1202.02 573,1161.5C 585.388,1136.45 592.221,1109.95 593.5,1082C 590.65,1025.23 565.317,981.897 517.5,952C 488.018,934.878 456.351,928.045 422.5,931.5C 413.06,929.55 408.727,923.716 409.5,914C 410.067,907.102 413.733,903.102 420.5,902C 491.883,896.774 549.383,922.274 593,978.5C 630.695,1035.68 637.028,1096.35 612,1160.5C 588.303,1222.2 544.803,1262.37 481.5,1281C 395.505,1297.41 318.172,1278.74 249.5,1225C 191.761,1173.72 155.595,1109.89 141,1033.5C 119.115,895.824 157.948,778.657 257.5,682C 294.838,648.48 337.171,622.813 384.5,605C 321.858,600.59 261.525,586.257 203.5,562C 153.285,540.439 110.452,508.939 75,467.5C 36.4527,416.069 11.286,358.736 -0.5,295.5C -0.5,284.167 -0.5,272.833 -0.5,261.5C 6.95312,218.388 32.6198,195.721 76.5,193.5C 98.9959,194.498 119.996,200.665 139.5,212C 165.804,227.659 190.137,245.992 212.5,267C 226.363,280.529 239.863,294.362 253,308.5C 293.691,355.865 335.858,402.032 379.5,447C 413.281,480.133 449.948,509.466 489.5,535C 511.289,548.229 533.956,559.895 557.5,570C 649.118,566.897 738.118,580.564 824.5,611C 847.036,619.505 869.369,628.172 891.5,637C 827.028,578.542 776.862,509.709 741,430.5C 716.249,374.413 705.249,315.746 708,254.5C 713.399,189.223 731.066,127.556 761,69.5C 773.542,45.6205 791.042,26.1205 813.5,11C 823.051,5.65523 833.051,1.8219 843.5,-0.5 Z"></path>
  </g>
</svg>
